<mxfile host="Electron" modified="2024-03-15T07:34:38.510Z" agent="Mozilla/5.0 (X11; Linux x86_64) AppleWebKit/537.36 (KHTML, like Gecko) draw.io/24.0.4 Chrome/120.0.6099.109 Electron/28.1.0 Safari/537.36" etag="cJ8gwCN85caRrdQhzNHe" version="24.0.4" type="device">
  <diagram id="C5RBs43oDa-KdzZeNtuy" name="Page-1">
    <mxGraphModel dx="988" dy="551" grid="1" gridSize="10" guides="1" tooltips="1" connect="1" arrows="1" fold="1" page="1" pageScale="1" pageWidth="827" pageHeight="1169" math="0" shadow="0">
      <root>
        <mxCell id="WIyWlLk6GJQsqaUBKTNV-0" />
        <mxCell id="WIyWlLk6GJQsqaUBKTNV-1" parent="WIyWlLk6GJQsqaUBKTNV-0" />
        <mxCell id="_5CvA-VoMg5_uBIjGaFQ-31" style="edgeStyle=orthogonalEdgeStyle;rounded=0;orthogonalLoop=1;jettySize=auto;html=1;exitX=0.5;exitY=1;exitDx=0;exitDy=0;entryX=0.5;entryY=0;entryDx=0;entryDy=0;" edge="1" parent="WIyWlLk6GJQsqaUBKTNV-1" source="_5CvA-VoMg5_uBIjGaFQ-3" target="_5CvA-VoMg5_uBIjGaFQ-13">
          <mxGeometry relative="1" as="geometry" />
        </mxCell>
        <mxCell id="_5CvA-VoMg5_uBIjGaFQ-3" value="Verilog代码" style="shape=parallelogram;html=1;strokeWidth=2;perimeter=parallelogramPerimeter;whiteSpace=wrap;rounded=1;arcSize=12;size=0.23;" vertex="1" parent="WIyWlLk6GJQsqaUBKTNV-1">
          <mxGeometry x="180" y="130" width="100" height="30" as="geometry" />
        </mxCell>
        <mxCell id="_5CvA-VoMg5_uBIjGaFQ-28" style="edgeStyle=orthogonalEdgeStyle;rounded=0;orthogonalLoop=1;jettySize=auto;html=1;exitX=0.5;exitY=1;exitDx=0;exitDy=0;entryX=0.5;entryY=0;entryDx=0;entryDy=0;" edge="1" parent="WIyWlLk6GJQsqaUBKTNV-1" source="_5CvA-VoMg5_uBIjGaFQ-11" target="_5CvA-VoMg5_uBIjGaFQ-3">
          <mxGeometry relative="1" as="geometry" />
        </mxCell>
        <mxCell id="_5CvA-VoMg5_uBIjGaFQ-11" value="CIRCT编译器" style="rounded=1;whiteSpace=wrap;html=1;absoluteArcSize=1;arcSize=14;strokeWidth=2;" vertex="1" parent="WIyWlLk6GJQsqaUBKTNV-1">
          <mxGeometry x="180" y="80" width="100" height="25" as="geometry" />
        </mxCell>
        <mxCell id="_5CvA-VoMg5_uBIjGaFQ-12" value="Chisel 代码" style="shape=parallelogram;html=1;strokeWidth=2;perimeter=parallelogramPerimeter;whiteSpace=wrap;rounded=1;arcSize=12;size=0.23;" vertex="1" parent="WIyWlLk6GJQsqaUBKTNV-1">
          <mxGeometry x="180" y="30" width="100" height="30" as="geometry" />
        </mxCell>
        <mxCell id="_5CvA-VoMg5_uBIjGaFQ-32" style="edgeStyle=orthogonalEdgeStyle;rounded=0;orthogonalLoop=1;jettySize=auto;html=1;exitX=1;exitY=0.5;exitDx=0;exitDy=0;" edge="1" parent="WIyWlLk6GJQsqaUBKTNV-1" source="_5CvA-VoMg5_uBIjGaFQ-13" target="_5CvA-VoMg5_uBIjGaFQ-18">
          <mxGeometry relative="1" as="geometry" />
        </mxCell>
        <mxCell id="_5CvA-VoMg5_uBIjGaFQ-13" value="Verilator" style="rounded=1;whiteSpace=wrap;html=1;absoluteArcSize=1;arcSize=14;strokeWidth=2;" vertex="1" parent="WIyWlLk6GJQsqaUBKTNV-1">
          <mxGeometry x="180" y="190" width="100" height="50" as="geometry" />
        </mxCell>
        <mxCell id="_5CvA-VoMg5_uBIjGaFQ-29" style="edgeStyle=elbowEdgeStyle;rounded=0;orthogonalLoop=1;jettySize=auto;html=1;exitX=1;exitY=0.5;exitDx=0;exitDy=0;entryX=0;entryY=0.25;entryDx=0;entryDy=0;" edge="1" parent="WIyWlLk6GJQsqaUBKTNV-1" source="_5CvA-VoMg5_uBIjGaFQ-16" target="_5CvA-VoMg5_uBIjGaFQ-13">
          <mxGeometry relative="1" as="geometry" />
        </mxCell>
        <mxCell id="_5CvA-VoMg5_uBIjGaFQ-16" value="C++测试台" style="shape=parallelogram;html=1;strokeWidth=2;perimeter=parallelogramPerimeter;whiteSpace=wrap;rounded=1;arcSize=12;size=0.23;" vertex="1" parent="WIyWlLk6GJQsqaUBKTNV-1">
          <mxGeometry x="60" y="180" width="100" height="30" as="geometry" />
        </mxCell>
        <mxCell id="_5CvA-VoMg5_uBIjGaFQ-30" style="edgeStyle=elbowEdgeStyle;rounded=0;orthogonalLoop=1;jettySize=auto;html=1;exitX=1;exitY=0.25;exitDx=0;exitDy=0;entryX=0;entryY=0.75;entryDx=0;entryDy=0;" edge="1" parent="WIyWlLk6GJQsqaUBKTNV-1" source="_5CvA-VoMg5_uBIjGaFQ-17" target="_5CvA-VoMg5_uBIjGaFQ-13">
          <mxGeometry relative="1" as="geometry" />
        </mxCell>
        <mxCell id="_5CvA-VoMg5_uBIjGaFQ-17" value="自制调试器" style="shape=parallelogram;html=1;strokeWidth=2;perimeter=parallelogramPerimeter;whiteSpace=wrap;rounded=1;arcSize=12;size=0.23;" vertex="1" parent="WIyWlLk6GJQsqaUBKTNV-1">
          <mxGeometry x="60" y="230" width="100" height="30" as="geometry" />
        </mxCell>
        <mxCell id="_5CvA-VoMg5_uBIjGaFQ-18" value="仿真程序" style="shape=parallelogram;html=1;strokeWidth=2;perimeter=parallelogramPerimeter;whiteSpace=wrap;rounded=1;arcSize=12;size=0.23;shadow=1;textShadow=1;" vertex="1" parent="WIyWlLk6GJQsqaUBKTNV-1">
          <mxGeometry x="320" y="195" width="126" height="40" as="geometry" />
        </mxCell>
        <mxCell id="_5CvA-VoMg5_uBIjGaFQ-34" style="edgeStyle=orthogonalEdgeStyle;rounded=0;orthogonalLoop=1;jettySize=auto;html=1;exitX=0.5;exitY=1;exitDx=0;exitDy=0;entryX=0.5;entryY=0;entryDx=0;entryDy=0;" edge="1" parent="WIyWlLk6GJQsqaUBKTNV-1" source="_5CvA-VoMg5_uBIjGaFQ-19" target="_5CvA-VoMg5_uBIjGaFQ-20">
          <mxGeometry relative="1" as="geometry" />
        </mxCell>
        <mxCell id="_5CvA-VoMg5_uBIjGaFQ-19" value="测试例" style="shape=parallelogram;html=1;strokeWidth=2;perimeter=parallelogramPerimeter;whiteSpace=wrap;rounded=1;arcSize=12;size=0.23;" vertex="1" parent="WIyWlLk6GJQsqaUBKTNV-1">
          <mxGeometry x="346" y="75" width="100" height="30" as="geometry" />
        </mxCell>
        <mxCell id="_5CvA-VoMg5_uBIjGaFQ-20" value="riscv-gcc" style="rounded=1;whiteSpace=wrap;html=1;absoluteArcSize=1;arcSize=14;strokeWidth=2;" vertex="1" parent="WIyWlLk6GJQsqaUBKTNV-1">
          <mxGeometry x="340" y="130" width="100" height="25" as="geometry" />
        </mxCell>
        <mxCell id="_5CvA-VoMg5_uBIjGaFQ-37" style="edgeStyle=orthogonalEdgeStyle;rounded=0;orthogonalLoop=1;jettySize=auto;html=1;entryX=0;entryY=0.5;entryDx=0;entryDy=0;" edge="1" parent="WIyWlLk6GJQsqaUBKTNV-1" source="_5CvA-VoMg5_uBIjGaFQ-23" target="_5CvA-VoMg5_uBIjGaFQ-24">
          <mxGeometry relative="1" as="geometry" />
        </mxCell>
        <mxCell id="_5CvA-VoMg5_uBIjGaFQ-23" value="标准参考实现" style="shape=parallelogram;html=1;strokeWidth=2;perimeter=parallelogramPerimeter;whiteSpace=wrap;rounded=1;arcSize=12;size=0.23;" vertex="1" parent="WIyWlLk6GJQsqaUBKTNV-1">
          <mxGeometry x="180" y="260" width="126" height="40" as="geometry" />
        </mxCell>
        <mxCell id="_5CvA-VoMg5_uBIjGaFQ-24" value="Difftest" style="rounded=1;whiteSpace=wrap;html=1;absoluteArcSize=1;arcSize=14;strokeWidth=2;" vertex="1" parent="WIyWlLk6GJQsqaUBKTNV-1">
          <mxGeometry x="333" y="260" width="100" height="40" as="geometry" />
        </mxCell>
        <mxCell id="_5CvA-VoMg5_uBIjGaFQ-26" value="测试结果" style="strokeWidth=2;html=1;shape=mxgraph.flowchart.terminator;whiteSpace=wrap;" vertex="1" parent="WIyWlLk6GJQsqaUBKTNV-1">
          <mxGeometry x="470" y="260" width="75" height="40" as="geometry" />
        </mxCell>
        <mxCell id="_5CvA-VoMg5_uBIjGaFQ-27" style="edgeStyle=orthogonalEdgeStyle;rounded=0;orthogonalLoop=1;jettySize=auto;html=1;exitX=0.5;exitY=1;exitDx=0;exitDy=0;entryX=0.501;entryY=-0.154;entryDx=0;entryDy=0;entryPerimeter=0;" edge="1" parent="WIyWlLk6GJQsqaUBKTNV-1" source="_5CvA-VoMg5_uBIjGaFQ-12" target="_5CvA-VoMg5_uBIjGaFQ-11">
          <mxGeometry relative="1" as="geometry" />
        </mxCell>
        <mxCell id="_5CvA-VoMg5_uBIjGaFQ-35" style="edgeStyle=orthogonalEdgeStyle;rounded=0;orthogonalLoop=1;jettySize=auto;html=1;exitX=0.5;exitY=1;exitDx=0;exitDy=0;entryX=0.534;entryY=-0.019;entryDx=0;entryDy=0;entryPerimeter=0;" edge="1" parent="WIyWlLk6GJQsqaUBKTNV-1" source="_5CvA-VoMg5_uBIjGaFQ-20" target="_5CvA-VoMg5_uBIjGaFQ-18">
          <mxGeometry relative="1" as="geometry" />
        </mxCell>
        <mxCell id="_5CvA-VoMg5_uBIjGaFQ-36" style="edgeStyle=orthogonalEdgeStyle;rounded=0;orthogonalLoop=1;jettySize=auto;html=1;exitX=0.5;exitY=1;exitDx=0;exitDy=0;entryX=0.495;entryY=-0.073;entryDx=0;entryDy=0;entryPerimeter=0;" edge="1" parent="WIyWlLk6GJQsqaUBKTNV-1" source="_5CvA-VoMg5_uBIjGaFQ-18" target="_5CvA-VoMg5_uBIjGaFQ-24">
          <mxGeometry relative="1" as="geometry" />
        </mxCell>
        <mxCell id="_5CvA-VoMg5_uBIjGaFQ-38" style="edgeStyle=orthogonalEdgeStyle;rounded=0;orthogonalLoop=1;jettySize=auto;html=1;exitX=1;exitY=0.5;exitDx=0;exitDy=0;entryX=0;entryY=0.5;entryDx=0;entryDy=0;entryPerimeter=0;" edge="1" parent="WIyWlLk6GJQsqaUBKTNV-1" source="_5CvA-VoMg5_uBIjGaFQ-24" target="_5CvA-VoMg5_uBIjGaFQ-26">
          <mxGeometry relative="1" as="geometry" />
        </mxCell>
      </root>
    </mxGraphModel>
  </diagram>
</mxfile>
